<svg width="280" height="280" viewBox="0 0 280 280" fill="none" xmlns="http://www.w3.org/2000/svg">
<path d="M94.1328 16.5815C157.284 -15.2079 222.788 6.01583 250.566 45.3295C266.779 68.2742 268.169 96.7738 263.997 122.708C259.822 148.659 250.05 172.229 243.701 185.504C237.718 198.014 234.973 216.475 236.34 234.067C237.71 251.698 243.182 268.108 253.275 276.782C253.764 277.202 253.82 277.938 253.4 278.427C252.98 278.916 252.244 278.971 251.755 278.551C240.956 269.271 235.4 252.089 234.014 234.247C232.624 216.366 235.392 197.471 241.597 184.497C247.898 171.322 257.569 147.98 261.693 122.338C265.821 96.6802 264.367 68.906 248.66 46.6762C221.602 8.38247 157.388 -12.6476 95.1826 18.6654C63.1732 34.7784 49.2976 57.5218 43.3867 78.2904C38.4917 95.4895 39.0489 111.317 39.3936 121.122C39.4667 123.202 39.5303 125.012 39.5303 126.505C39.5303 130.096 38.3483 134.203 36.5137 138.43C34.6717 142.674 32.1325 147.129 29.3301 151.438C23.8531 159.86 17.313 167.817 12.833 172.714V177.472C12.833 180.287 13.5544 181.873 14.2939 182.737C15.0424 183.61 15.881 183.834 16.3096 183.834C22.8528 183.834 27.9755 185.463 31.1016 188.342C34.3029 191.291 35.2537 195.415 33.6582 199.873C32.6418 202.714 33.2602 205.244 34.5039 207.322C35.5134 209.008 36.9179 210.357 38.1143 211.233C38.2351 211.19 38.3647 211.166 38.5 211.166C41.2371 211.166 45.8204 210.658 50.5449 209.123C55.2764 207.586 60.0351 205.057 63.2627 201.096C63.6697 200.597 64.4039 200.522 64.9033 200.929C65.4028 201.336 65.4783 202.071 65.0713 202.571C61.4545 207.009 56.2312 209.73 51.2666 211.343C46.722 212.82 42.2971 213.397 39.3047 213.486C39.294 213.5 39.2848 213.516 39.2734 213.531C38.2902 214.757 37.3604 217.092 37.4258 219.575C37.4895 221.991 38.4891 224.503 41.3105 226.294C44.4594 228.294 45.0343 232.358 44.7793 236.034C44.5244 239.707 43.4114 243.535 42.4336 246.032C42.5134 251.381 45.5186 254.742 49.4316 256.83C53.4464 258.973 58.3208 259.704 61.5771 259.705C73.7845 259.705 91.4324 253.721 107.234 246.56C115.107 242.992 122.47 239.156 128.399 235.676C134.361 232.177 138.781 229.09 140.843 227.033C144.169 223.713 147 218.663 149.155 213.648C151.303 208.648 152.728 203.804 153.291 200.996C153.418 200.365 154.032 199.956 154.664 200.082C155.296 200.209 155.705 200.824 155.578 201.455C154.98 204.44 153.503 209.438 151.299 214.569C149.101 219.684 146.129 225.055 142.491 228.685C140.2 230.971 135.552 234.183 129.58 237.688C123.576 241.212 116.139 245.086 108.197 248.685C107.618 248.947 107.036 249.208 106.451 249.467C112.743 255.833 116.716 262.683 119.129 267.996C120.376 270.743 121.209 273.085 121.731 274.746C121.993 275.577 122.178 276.238 122.297 276.695C122.357 276.923 122.4 277.102 122.429 277.224C122.443 277.285 122.454 277.333 122.462 277.366L122.471 277.404L122.473 277.415L122.474 277.419V277.42C122.47 277.422 122.408 277.435 121.334 277.666L122.474 277.421C122.609 278.051 122.209 278.671 121.579 278.807C120.949 278.943 120.329 278.542 120.193 277.913L120.191 277.907L120.186 277.88C120.18 277.855 120.171 277.816 120.158 277.763C120.133 277.657 120.094 277.496 120.039 277.285C119.929 276.862 119.755 276.238 119.506 275.447C119.008 273.863 118.208 271.611 117.005 268.961C114.598 263.66 110.588 256.791 104.183 250.499C104.173 250.49 104.165 250.48 104.156 250.471C89.3683 256.853 73.2518 262.038 61.5771 262.038C58.0628 262.037 52.7814 261.263 48.333 258.889C43.8356 256.489 40.0987 252.383 40.0986 245.813C40.0986 245.664 40.1263 245.516 40.1816 245.378C41.1188 243.04 42.2105 239.34 42.4512 235.871C42.6991 232.298 42.0177 229.508 40.0596 228.264C36.4971 226.002 35.1741 222.722 35.0928 219.636C35.028 217.178 35.7467 214.813 36.7383 213.119C35.3239 212.083 33.694 210.512 32.502 208.521C30.9891 205.994 30.1563 202.733 31.4609 199.087C32.7671 195.438 31.9773 192.321 29.5205 190.058C26.988 187.725 22.5342 186.167 16.3096 186.167C15.1906 186.167 13.7075 185.639 12.5215 184.254C11.3265 182.859 10.5 180.681 10.5 177.472V172.259C10.5001 171.966 10.6103 171.684 10.8086 171.469C15.223 166.681 21.8547 158.652 27.374 150.165C30.1334 145.922 32.5999 141.587 34.373 137.501C36.1535 133.399 37.1963 129.633 37.1963 126.505C37.1963 125.084 37.1339 123.334 37.0615 121.303C36.7135 111.533 36.1338 95.2507 41.1426 77.6518C47.2153 56.3148 61.4877 33.0145 94.1328 16.5815ZM164.088 127.653C168.74 124.701 175.01 122.624 182.318 124.219C192.484 126.439 200.861 138.739 199.314 153.439C197.755 168.27 186.203 185.479 156.798 198.237C156.207 198.493 155.52 198.222 155.264 197.631C155.007 197.04 155.278 196.353 155.869 196.096C184.799 183.545 195.552 166.91 196.994 153.195C198.45 139.348 190.527 128.4 181.82 126.499C175.255 125.066 169.609 126.913 165.339 129.622C161.031 132.356 158.227 135.903 157.383 137.641C157.101 138.22 156.403 138.462 155.823 138.18C155.244 137.898 155.003 137.201 155.284 136.621C156.346 134.436 159.473 130.581 164.088 127.653ZM175.218 138.833C179.477 138.833 182.539 140.077 184.726 141.685C186.895 143.28 188.14 145.188 188.846 146.419C189.166 146.978 188.973 147.692 188.414 148.012C187.855 148.333 187.142 148.139 186.821 147.58C186.189 146.479 185.139 144.886 183.343 143.565C181.563 142.256 178.986 141.166 175.218 141.166C173.096 141.166 170.776 142.062 168.432 143.608C166.099 145.146 163.831 147.272 161.837 149.584C159.845 151.895 158.156 154.361 156.971 156.551C155.755 158.798 155.167 160.582 155.167 161.583V167.172C157.833 168.162 161.154 169.969 163.128 172.557C164.24 174.015 164.961 175.773 164.819 177.779C164.766 178.531 164.593 179.294 164.294 180.066C167.563 178.147 171.624 175.273 174.309 171.936C174.712 171.434 175.447 171.353 175.949 171.757C176.451 172.161 176.531 172.896 176.127 173.398C171.828 178.743 164.481 182.842 161.355 184.233C160.85 184.458 160.255 184.296 159.933 183.846C159.61 183.396 159.649 182.781 160.025 182.374C161.739 180.522 162.399 178.931 162.492 177.614C162.585 176.306 162.129 175.095 161.272 173.972C159.513 171.665 156.221 169.953 153.638 169.109C153.158 168.952 152.834 168.505 152.834 168V161.583C152.834 159.959 153.678 157.733 154.918 155.441C156.188 153.092 157.976 150.49 160.069 148.061C162.161 145.634 164.588 143.349 167.147 141.661C169.695 139.98 172.465 138.833 175.218 138.833ZM50.75 133C53.6495 133 56 135.351 56 138.25C55.9998 141.15 53.6494 143.5 50.75 143.5C47.8506 143.5 45.5002 141.15 45.5 138.25C45.5 135.351 47.8505 133 50.75 133ZM63.79 102.959C70.8987 101.965 79.3078 103.314 87.0898 109.946C87.5803 110.364 87.6396 111.1 87.2217 111.59C86.8038 112.081 86.0676 112.139 85.5771 111.721C78.3691 105.579 70.653 104.357 64.1133 105.271C57.5171 106.193 52.1744 109.283 49.8301 111.654C49.3771 112.112 48.6379 112.116 48.1797 111.663C47.7218 111.209 47.718 110.471 48.1709 110.013C50.9097 107.243 56.7381 103.945 63.79 102.959Z" fill="#232C35"/>
</svg>
